<mxfile host="app.diagrams.net" modified="2022-07-12T23:55:57.525Z" agent="5.0 (Windows)" etag="q9AFQooYfqNWzvBod1b-" version="20.0.4" type="github">
  <diagram id="rP3lQHloeb82EkU2u6x7" name="Page-1">
    <mxGraphModel dx="864" dy="458" grid="1" gridSize="10" guides="1" tooltips="1" connect="1" arrows="1" fold="1" page="1" pageScale="1" pageWidth="827" pageHeight="1169" math="0" shadow="0">
      <root>
        <mxCell id="0" />
        <mxCell id="1" parent="0" />
        <mxCell id="mSJYKKnzMjpl-HyY6h-2-65" style="edgeStyle=orthogonalEdgeStyle;rounded=0;orthogonalLoop=1;jettySize=auto;html=1;entryX=0.5;entryY=0;entryDx=0;entryDy=0;" edge="1" parent="1" source="mSJYKKnzMjpl-HyY6h-2-1" target="mSJYKKnzMjpl-HyY6h-2-18">
          <mxGeometry relative="1" as="geometry" />
        </mxCell>
        <mxCell id="mSJYKKnzMjpl-HyY6h-2-1" value="Start" style="ellipse;whiteSpace=wrap;html=1;" vertex="1" parent="1">
          <mxGeometry x="288" y="140" width="100" height="50" as="geometry" />
        </mxCell>
        <mxCell id="mSJYKKnzMjpl-HyY6h-2-2" value="End" style="ellipse;whiteSpace=wrap;html=1;" vertex="1" parent="1">
          <mxGeometry x="288" y="1360" width="100" height="50" as="geometry" />
        </mxCell>
        <mxCell id="mSJYKKnzMjpl-HyY6h-2-64" style="edgeStyle=orthogonalEdgeStyle;rounded=0;orthogonalLoop=1;jettySize=auto;html=1;entryX=0.5;entryY=0;entryDx=0;entryDy=0;" edge="1" parent="1" source="mSJYKKnzMjpl-HyY6h-2-18" target="mSJYKKnzMjpl-HyY6h-2-55">
          <mxGeometry relative="1" as="geometry" />
        </mxCell>
        <mxCell id="mSJYKKnzMjpl-HyY6h-2-18" value="Start recording video Start a timer of 10 minutes" style="rounded=0;whiteSpace=wrap;html=1;" vertex="1" parent="1">
          <mxGeometry x="273" y="230" width="130" height="60" as="geometry" />
        </mxCell>
        <mxCell id="mSJYKKnzMjpl-HyY6h-2-31" style="edgeStyle=orthogonalEdgeStyle;rounded=0;orthogonalLoop=1;jettySize=auto;html=1;entryX=0.5;entryY=0;entryDx=0;entryDy=0;" edge="1" parent="1" source="mSJYKKnzMjpl-HyY6h-2-19" target="mSJYKKnzMjpl-HyY6h-2-28">
          <mxGeometry relative="1" as="geometry" />
        </mxCell>
        <mxCell id="mSJYKKnzMjpl-HyY6h-2-48" style="edgeStyle=orthogonalEdgeStyle;rounded=0;orthogonalLoop=1;jettySize=auto;html=1;entryX=0.5;entryY=1;entryDx=0;entryDy=0;" edge="1" parent="1" source="mSJYKKnzMjpl-HyY6h-2-19" target="mSJYKKnzMjpl-HyY6h-2-21">
          <mxGeometry relative="1" as="geometry" />
        </mxCell>
        <mxCell id="mSJYKKnzMjpl-HyY6h-2-19" value="is the timer done?" style="rhombus;whiteSpace=wrap;html=1;" vertex="1" parent="1">
          <mxGeometry x="260" y="560" width="156" height="80" as="geometry" />
        </mxCell>
        <mxCell id="mSJYKKnzMjpl-HyY6h-2-21" value="&lt;div&gt;Broadcast the video surveillance&lt;/div&gt;&lt;div&gt;to the main server in the video segment&lt;/div&gt;" style="rounded=0;whiteSpace=wrap;html=1;" vertex="1" parent="1">
          <mxGeometry x="454" y="510" width="190" height="70" as="geometry" />
        </mxCell>
        <mxCell id="mSJYKKnzMjpl-HyY6h-2-26" value="Yes" style="text;html=1;align=center;verticalAlign=middle;resizable=0;points=[];autosize=1;strokeColor=none;fillColor=none;" vertex="1" parent="1">
          <mxGeometry x="410" y="573" width="40" height="30" as="geometry" />
        </mxCell>
        <mxCell id="mSJYKKnzMjpl-HyY6h-2-38" style="edgeStyle=orthogonalEdgeStyle;rounded=0;orthogonalLoop=1;jettySize=auto;html=1;entryX=0.5;entryY=0;entryDx=0;entryDy=0;" edge="1" parent="1" source="mSJYKKnzMjpl-HyY6h-2-28" target="mSJYKKnzMjpl-HyY6h-2-29">
          <mxGeometry relative="1" as="geometry" />
        </mxCell>
        <mxCell id="mSJYKKnzMjpl-HyY6h-2-80" style="edgeStyle=elbowEdgeStyle;rounded=0;orthogonalLoop=1;jettySize=auto;elbow=vertical;html=1;" edge="1" parent="1" source="mSJYKKnzMjpl-HyY6h-2-28">
          <mxGeometry relative="1" as="geometry">
            <mxPoint x="194" y="540" as="targetPoint" />
            <Array as="points">
              <mxPoint x="234" y="725" />
            </Array>
          </mxGeometry>
        </mxCell>
        <mxCell id="mSJYKKnzMjpl-HyY6h-2-28" value="&lt;div&gt;is there any&lt;/div&gt;&lt;div&gt;animal movement detected?&lt;/div&gt;" style="rhombus;whiteSpace=wrap;html=1;" vertex="1" parent="1">
          <mxGeometry x="218" y="680" width="240" height="90" as="geometry" />
        </mxCell>
        <mxCell id="mSJYKKnzMjpl-HyY6h-2-66" style="edgeStyle=orthogonalEdgeStyle;rounded=0;orthogonalLoop=1;jettySize=auto;html=1;entryX=0.5;entryY=0;entryDx=0;entryDy=0;" edge="1" parent="1" source="mSJYKKnzMjpl-HyY6h-2-29" target="mSJYKKnzMjpl-HyY6h-2-33">
          <mxGeometry relative="1" as="geometry" />
        </mxCell>
        <mxCell id="mSJYKKnzMjpl-HyY6h-2-29" value="Capture a still image of the animal and send to the administrator" style="rounded=0;whiteSpace=wrap;html=1;" vertex="1" parent="1">
          <mxGeometry x="242" y="810" width="191" height="70" as="geometry" />
        </mxCell>
        <mxCell id="mSJYKKnzMjpl-HyY6h-2-32" value="No" style="text;html=1;align=center;verticalAlign=middle;resizable=0;points=[];autosize=1;strokeColor=none;fillColor=none;" vertex="1" parent="1">
          <mxGeometry x="338" y="650" width="40" height="30" as="geometry" />
        </mxCell>
        <mxCell id="mSJYKKnzMjpl-HyY6h-2-35" style="edgeStyle=orthogonalEdgeStyle;rounded=0;orthogonalLoop=1;jettySize=auto;html=1;entryX=0.5;entryY=0;entryDx=0;entryDy=0;" edge="1" parent="1" source="mSJYKKnzMjpl-HyY6h-2-33" target="mSJYKKnzMjpl-HyY6h-2-34">
          <mxGeometry relative="1" as="geometry" />
        </mxCell>
        <mxCell id="mSJYKKnzMjpl-HyY6h-2-42" style="edgeStyle=orthogonalEdgeStyle;rounded=0;orthogonalLoop=1;jettySize=auto;html=1;" edge="1" parent="1" source="mSJYKKnzMjpl-HyY6h-2-33">
          <mxGeometry relative="1" as="geometry">
            <mxPoint x="334" y="540" as="targetPoint" />
            <Array as="points">
              <mxPoint x="154" y="970" />
              <mxPoint x="154" y="540" />
            </Array>
          </mxGeometry>
        </mxCell>
        <mxCell id="mSJYKKnzMjpl-HyY6h-2-33" value="&lt;div&gt;is administrator trying to pan the&lt;/div&gt;&lt;div&gt;camera or start/stop recording?&lt;/div&gt;" style="rhombus;whiteSpace=wrap;html=1;" vertex="1" parent="1">
          <mxGeometry x="215" y="920" width="246" height="100" as="geometry" />
        </mxCell>
        <mxCell id="mSJYKKnzMjpl-HyY6h-2-44" style="edgeStyle=orthogonalEdgeStyle;rounded=0;orthogonalLoop=1;jettySize=auto;html=1;entryX=0.5;entryY=0;entryDx=0;entryDy=0;" edge="1" parent="1" source="mSJYKKnzMjpl-HyY6h-2-34" target="mSJYKKnzMjpl-HyY6h-2-37">
          <mxGeometry relative="1" as="geometry" />
        </mxCell>
        <mxCell id="mSJYKKnzMjpl-HyY6h-2-34" value="Execute the requests by administrator" style="rounded=0;whiteSpace=wrap;html=1;" vertex="1" parent="1">
          <mxGeometry x="262" y="1060" width="152" height="60" as="geometry" />
        </mxCell>
        <mxCell id="mSJYKKnzMjpl-HyY6h-2-36" value="Yes" style="text;html=1;align=center;verticalAlign=middle;resizable=0;points=[];autosize=1;strokeColor=none;fillColor=none;" vertex="1" parent="1">
          <mxGeometry x="338" y="1020" width="40" height="30" as="geometry" />
        </mxCell>
        <mxCell id="mSJYKKnzMjpl-HyY6h-2-54" style="edgeStyle=orthogonalEdgeStyle;rounded=0;orthogonalLoop=1;jettySize=auto;html=1;entryX=0.424;entryY=1.024;entryDx=0;entryDy=0;entryPerimeter=0;" edge="1" parent="1">
          <mxGeometry relative="1" as="geometry">
            <mxPoint x="437.88154761904775" y="1200.047619047619" as="sourcePoint" />
            <mxPoint x="548.44" y="841.6799999999998" as="targetPoint" />
          </mxGeometry>
        </mxCell>
        <mxCell id="mSJYKKnzMjpl-HyY6h-2-69" style="edgeStyle=orthogonalEdgeStyle;rounded=0;orthogonalLoop=1;jettySize=auto;html=1;entryX=0.5;entryY=0;entryDx=0;entryDy=0;" edge="1" parent="1" source="mSJYKKnzMjpl-HyY6h-2-37" target="mSJYKKnzMjpl-HyY6h-2-68">
          <mxGeometry relative="1" as="geometry" />
        </mxCell>
        <mxCell id="mSJYKKnzMjpl-HyY6h-2-37" value="&lt;div&gt;Does the camera have&lt;/div&gt;&lt;div&gt;enough battery ?&lt;/div&gt;" style="rhombus;whiteSpace=wrap;html=1;" vertex="1" parent="1">
          <mxGeometry x="238" y="1160" width="199" height="80" as="geometry" />
        </mxCell>
        <mxCell id="mSJYKKnzMjpl-HyY6h-2-39" value="Yes" style="text;html=1;align=center;verticalAlign=middle;resizable=0;points=[];autosize=1;strokeColor=none;fillColor=none;" vertex="1" parent="1">
          <mxGeometry x="334" y="765" width="40" height="30" as="geometry" />
        </mxCell>
        <mxCell id="mSJYKKnzMjpl-HyY6h-2-43" value="No" style="text;html=1;align=center;verticalAlign=middle;resizable=0;points=[];autosize=1;strokeColor=none;fillColor=none;" vertex="1" parent="1">
          <mxGeometry x="175" y="930" width="40" height="30" as="geometry" />
        </mxCell>
        <mxCell id="mSJYKKnzMjpl-HyY6h-2-49" value="No" style="text;html=1;align=center;verticalAlign=middle;resizable=0;points=[];autosize=1;strokeColor=none;fillColor=none;" vertex="1" parent="1">
          <mxGeometry x="429" y="1170" width="40" height="30" as="geometry" />
        </mxCell>
        <mxCell id="mSJYKKnzMjpl-HyY6h-2-53" style="edgeStyle=orthogonalEdgeStyle;rounded=0;orthogonalLoop=1;jettySize=auto;html=1;" edge="1" parent="1">
          <mxGeometry relative="1" as="geometry">
            <mxPoint x="549" y="600" as="targetPoint" />
            <mxPoint x="549" y="770" as="sourcePoint" />
            <Array as="points">
              <mxPoint x="549" y="650" />
              <mxPoint x="549" y="650" />
            </Array>
          </mxGeometry>
        </mxCell>
        <mxCell id="mSJYKKnzMjpl-HyY6h-2-50" value="&lt;div&gt;Start the charging process&lt;/div&gt;&lt;div&gt;until 90 minutes, temporarily disable the camera panning&lt;br&gt;&lt;/div&gt;&amp;nbsp;and stop the email alerts" style="rounded=0;whiteSpace=wrap;html=1;" vertex="1" parent="1">
          <mxGeometry x="469" y="770" width="185" height="70" as="geometry" />
        </mxCell>
        <mxCell id="mSJYKKnzMjpl-HyY6h-2-60" style="edgeStyle=orthogonalEdgeStyle;rounded=0;orthogonalLoop=1;jettySize=auto;html=1;entryX=0.5;entryY=0;entryDx=0;entryDy=0;" edge="1" parent="1" source="mSJYKKnzMjpl-HyY6h-2-55" target="mSJYKKnzMjpl-HyY6h-2-59">
          <mxGeometry relative="1" as="geometry" />
        </mxCell>
        <mxCell id="mSJYKKnzMjpl-HyY6h-2-62" style="edgeStyle=orthogonalEdgeStyle;rounded=0;orthogonalLoop=1;jettySize=auto;html=1;" edge="1" parent="1" source="mSJYKKnzMjpl-HyY6h-2-55">
          <mxGeometry relative="1" as="geometry">
            <mxPoint x="554" y="629.9999999999999" as="targetPoint" />
            <Array as="points">
              <mxPoint x="674" y="370" />
              <mxPoint x="674" y="630" />
            </Array>
          </mxGeometry>
        </mxCell>
        <mxCell id="mSJYKKnzMjpl-HyY6h-2-55" value="is the battery charged completely?" style="rhombus;whiteSpace=wrap;html=1;" vertex="1" parent="1">
          <mxGeometry x="250" y="330" width="176" height="80" as="geometry" />
        </mxCell>
        <mxCell id="mSJYKKnzMjpl-HyY6h-2-58" value="Yes" style="text;html=1;align=center;verticalAlign=middle;resizable=0;points=[];autosize=1;strokeColor=none;fillColor=none;" vertex="1" parent="1">
          <mxGeometry x="338" y="410" width="40" height="30" as="geometry" />
        </mxCell>
        <mxCell id="mSJYKKnzMjpl-HyY6h-2-61" style="edgeStyle=orthogonalEdgeStyle;rounded=0;orthogonalLoop=1;jettySize=auto;html=1;entryX=0.5;entryY=0;entryDx=0;entryDy=0;" edge="1" parent="1" source="mSJYKKnzMjpl-HyY6h-2-59" target="mSJYKKnzMjpl-HyY6h-2-19">
          <mxGeometry relative="1" as="geometry" />
        </mxCell>
        <mxCell id="mSJYKKnzMjpl-HyY6h-2-59" value="Enable the camera panning and email alerts" style="rounded=0;whiteSpace=wrap;html=1;" vertex="1" parent="1">
          <mxGeometry x="273" y="450" width="130" height="60" as="geometry" />
        </mxCell>
        <mxCell id="mSJYKKnzMjpl-HyY6h-2-63" value="No" style="text;html=1;align=center;verticalAlign=middle;resizable=0;points=[];autosize=1;strokeColor=none;fillColor=none;" vertex="1" parent="1">
          <mxGeometry x="414" y="345" width="40" height="30" as="geometry" />
        </mxCell>
        <mxCell id="mSJYKKnzMjpl-HyY6h-2-72" style="edgeStyle=orthogonalEdgeStyle;rounded=0;orthogonalLoop=1;jettySize=auto;html=1;entryX=0.5;entryY=0;entryDx=0;entryDy=0;" edge="1" parent="1" source="mSJYKKnzMjpl-HyY6h-2-68" target="mSJYKKnzMjpl-HyY6h-2-2">
          <mxGeometry relative="1" as="geometry" />
        </mxCell>
        <mxCell id="mSJYKKnzMjpl-HyY6h-2-68" value="Keep checking for remote requests made by the administrator" style="rounded=0;whiteSpace=wrap;html=1;" vertex="1" parent="1">
          <mxGeometry x="257" y="1270" width="162" height="60" as="geometry" />
        </mxCell>
        <mxCell id="mSJYKKnzMjpl-HyY6h-2-70" value="Yes" style="text;html=1;align=center;verticalAlign=middle;resizable=0;points=[];autosize=1;strokeColor=none;fillColor=none;" vertex="1" parent="1">
          <mxGeometry x="338" y="1240" width="40" height="30" as="geometry" />
        </mxCell>
        <mxCell id="mSJYKKnzMjpl-HyY6h-2-73" value="No" style="text;html=1;align=center;verticalAlign=middle;resizable=0;points=[];autosize=1;strokeColor=none;fillColor=none;" vertex="1" parent="1">
          <mxGeometry x="198" y="690" width="40" height="30" as="geometry" />
        </mxCell>
        <mxCell id="mSJYKKnzMjpl-HyY6h-2-79" value="" style="shape=flexArrow;endArrow=classic;html=1;rounded=0;elbow=vertical;endWidth=4.8;endSize=4.168;entryX=1;entryY=0.5;entryDx=0;entryDy=0;" edge="1" parent="1" source="mSJYKKnzMjpl-HyY6h-2-21" target="mSJYKKnzMjpl-HyY6h-2-18">
          <mxGeometry width="50" height="50" relative="1" as="geometry">
            <mxPoint x="104" y="450" as="sourcePoint" />
            <mxPoint x="154" y="400" as="targetPoint" />
            <Array as="points">
              <mxPoint x="549" y="260" />
            </Array>
          </mxGeometry>
        </mxCell>
        <mxCell id="mSJYKKnzMjpl-HyY6h-2-82" value="&lt;div align=&quot;left&quot;&gt;&lt;b&gt;Quiz 2 Flowchart Submission&lt;/b&gt;&lt;br&gt;&lt;/div&gt;&lt;div align=&quot;left&quot;&gt;Jeel Satishkumar Patel&lt;br&gt;Student ID: 167984210&lt;br&gt;Email: jpatel363@myseneca.ca&lt;/div&gt;" style="text;html=1;align=left;verticalAlign=middle;resizable=0;points=[];autosize=1;strokeColor=none;fillColor=none;" vertex="1" parent="1">
          <mxGeometry x="78" y="40" width="210" height="70" as="geometry" />
        </mxCell>
      </root>
    </mxGraphModel>
  </diagram>
</mxfile>
